<?xml version="1.0" encoding="UTF-8"?>
<svg xmlns="http://www.w3.org/2000/svg" viewBox="0 0 200 300" width="600" height="900">
  <defs>
    <linearGradient id="g" x1="0" x2="0" y1="0" y2="1">
      <stop offset="0%" stop-color="#6bbf59" />
      <stop offset="100%" stop-color="#2f8a2b" />
    </linearGradient>
  </defs>
  <rect width="100%" height="100%" fill="none" />
  <!-- stylized plant with two leaves -->
  <g transform="translate(100,220)">
    <path d="M0,0 C-8,-30 -40,-70 -10,-110 C20,-145 60,-120 70,-95 C80,-70 60,-45 40,-30 C20,-15 10,-5 0,0" fill="url(#g)" />
    <path d="M0,0 C8,-30 40,-70 10,-110 C-20,-145 -60,-120 -70,-95 C-80,-70 -60,-45 -40,-30 C-20,-15 -10,-5 0,0" fill="#4aa33f" opacity="0.95" />
    <rect x="-6" y="0" width="12" height="60" rx="6" ry="6" fill="#2f6f23" />
  </g>
</svg>
